%TF.GenerationSoftware,KiCad,Pcbnew,7.0.10*%
%TF.CreationDate,2024-01-09T19:55:11+00:00*%
%TF.ProjectId,data_logger,64617461-5f6c-46f6-9767-65722e6b6963,rev?*%
%TF.SameCoordinates,Original*%
%TF.FileFunction,Soldermask,Top*%
%TF.FilePolarity,Negative*%
%FSLAX46Y46*%
G04 Gerber Fmt 4.6, Leading zero omitted, Abs format (unit mm)*
G04 Created by KiCad (PCBNEW 7.0.10) date 2024-01-09 19:55:11*
%MOMM*%
%LPD*%
G01*
G04 APERTURE LIST*
G04 Aperture macros list*
%AMRoundRect*
0 Rectangle with rounded corners*
0 $1 Rounding radius*
0 $2 $3 $4 $5 $6 $7 $8 $9 X,Y pos of 4 corners*
0 Add a 4 corners polygon primitive as box body*
4,1,4,$2,$3,$4,$5,$6,$7,$8,$9,$2,$3,0*
0 Add four circle primitives for the rounded corners*
1,1,$1+$1,$2,$3*
1,1,$1+$1,$4,$5*
1,1,$1+$1,$6,$7*
1,1,$1+$1,$8,$9*
0 Add four rect primitives between the rounded corners*
20,1,$1+$1,$2,$3,$4,$5,0*
20,1,$1+$1,$4,$5,$6,$7,0*
20,1,$1+$1,$6,$7,$8,$9,0*
20,1,$1+$1,$8,$9,$2,$3,0*%
G04 Aperture macros list end*
%ADD10C,4.300000*%
%ADD11C,1.524000*%
%ADD12C,2.000000*%
%ADD13R,2.000000X2.000000*%
%ADD14C,2.004000*%
%ADD15RoundRect,0.102000X-0.900000X-0.900000X0.900000X-0.900000X0.900000X0.900000X-0.900000X0.900000X0*%
%ADD16O,1.700000X1.700000*%
G04 APERTURE END LIST*
D10*
%TO.C,REF\u002A\u002A*%
X46000000Y-132000000D03*
%TD*%
%TO.C,REF\u002A\u002A*%
X131000000Y-53000000D03*
%TD*%
%TO.C,REF\u002A\u002A*%
X46000000Y-53000000D03*
%TD*%
%TO.C,REF\u002A\u002A*%
X131000000Y-132000000D03*
%TD*%
D11*
%TO.C,J3*%
X44754500Y-90299000D03*
X44754500Y-92299000D03*
X44754500Y-94299000D03*
X44754500Y-96299000D03*
%TD*%
%TO.C,J1*%
X44754500Y-61099000D03*
X44754500Y-63099000D03*
X44754500Y-65099000D03*
X44754500Y-67099000D03*
%TD*%
%TO.C,J2*%
X44754500Y-75399000D03*
X44754500Y-77399000D03*
X44754500Y-79399000D03*
X44754500Y-81399000D03*
%TD*%
D12*
%TO.C,U2*%
X86240000Y-50700000D03*
X86240000Y-53240000D03*
X86240000Y-55780000D03*
X86240000Y-58320000D03*
X86240000Y-60860000D03*
X86240000Y-63400000D03*
X86240000Y-65940000D03*
X86240000Y-68480000D03*
X86240000Y-71020000D03*
X86240000Y-73560000D03*
X86240000Y-76100000D03*
X86240000Y-78640000D03*
X86240000Y-81180000D03*
X86240000Y-83720000D03*
X86240000Y-86260000D03*
X86240000Y-88800000D03*
X83700000Y-88800000D03*
X81160000Y-88800000D03*
X78620000Y-88800000D03*
X76080000Y-88800000D03*
X73540000Y-88800000D03*
X71000000Y-88800000D03*
X68460000Y-88800000D03*
X65920000Y-88800000D03*
X63380000Y-88800000D03*
X63380000Y-86260000D03*
X63380000Y-83720000D03*
X63380000Y-81180000D03*
X63380000Y-78640000D03*
X63380000Y-76100000D03*
X63380000Y-73560000D03*
X63380000Y-71020000D03*
X63380000Y-63400000D03*
X63380000Y-60860000D03*
X63380000Y-58320000D03*
X63380000Y-55780000D03*
X63380000Y-53240000D03*
X63380000Y-50700000D03*
D13*
X66098000Y-50700000D03*
D12*
X68638000Y-50700000D03*
%TD*%
%TO.C,U3*%
X65500000Y-126492000D03*
X68040000Y-126492000D03*
X70580000Y-126492000D03*
X73120000Y-126492000D03*
X75660000Y-126492000D03*
X78200000Y-126492000D03*
X80740000Y-126492000D03*
X83280000Y-126492000D03*
X65500000Y-103632000D03*
X68040000Y-103632000D03*
X70580000Y-103632000D03*
X73120000Y-103632000D03*
X75660000Y-103632000D03*
X78200000Y-103632000D03*
X80740000Y-103632000D03*
X83280000Y-103632000D03*
%TD*%
D14*
%TO.C,U1*%
X102362000Y-65532000D03*
D15*
X102362000Y-60452000D03*
D14*
X102362000Y-62992000D03*
X102362000Y-68072000D03*
X102362000Y-70612000D03*
X102362000Y-73152000D03*
X102362000Y-75692000D03*
X102362000Y-78232000D03*
X102362000Y-80772000D03*
X102362000Y-83312000D03*
X102362000Y-85852000D03*
X102362000Y-88392000D03*
X102362000Y-90932000D03*
X102362000Y-93472000D03*
X102362000Y-96012000D03*
X102362000Y-98552000D03*
X102362000Y-101092000D03*
X102362000Y-103632000D03*
X124862000Y-70612000D03*
X124862000Y-73152000D03*
X124862000Y-75692000D03*
X124862000Y-78232000D03*
X124862000Y-80772000D03*
X124862000Y-83312000D03*
X124862000Y-85852000D03*
X124862000Y-88392000D03*
X124862000Y-90932000D03*
X124862000Y-93472000D03*
X124862000Y-96012000D03*
X124862000Y-98552000D03*
X124862000Y-101092000D03*
X124862000Y-103632000D03*
%TD*%
D16*
%TO.C,J4*%
X102108000Y-114808000D03*
X104648000Y-114808000D03*
X107188000Y-114808000D03*
X109728000Y-114808000D03*
X112268000Y-114808000D03*
X114808000Y-114808000D03*
%TD*%
%TO.C,J5*%
X102108000Y-124714000D03*
X104648000Y-124714000D03*
X107188000Y-124714000D03*
X109728000Y-124714000D03*
X112268000Y-124714000D03*
X114808000Y-124714000D03*
%TD*%
M02*
