%TF.GenerationSoftware,KiCad,Pcbnew,7.0.10*%
%TF.CreationDate,2024-01-09T19:55:11+00:00*%
%TF.ProjectId,data_logger,64617461-5f6c-46f6-9767-65722e6b6963,rev?*%
%TF.SameCoordinates,Original*%
%TF.FileFunction,Copper,L2,Bot*%
%TF.FilePolarity,Positive*%
%FSLAX46Y46*%
G04 Gerber Fmt 4.6, Leading zero omitted, Abs format (unit mm)*
G04 Created by KiCad (PCBNEW 7.0.10) date 2024-01-09 19:55:11*
%MOMM*%
%LPD*%
G01*
G04 APERTURE LIST*
%TA.AperFunction,ComponentPad*%
%ADD10C,1.524000*%
%TD*%
%TA.AperFunction,ComponentPad*%
%ADD11C,2.000000*%
%TD*%
%TA.AperFunction,ComponentPad*%
%ADD12R,2.000000X2.000000*%
%TD*%
%TA.AperFunction,ComponentPad*%
%ADD13C,1.800000*%
%TD*%
%TA.AperFunction,ComponentPad*%
%ADD14R,1.800000X1.800000*%
%TD*%
%TA.AperFunction,ComponentPad*%
%ADD15O,1.700000X1.700000*%
%TD*%
%TA.AperFunction,Conductor*%
%ADD16C,0.250000*%
%TD*%
G04 APERTURE END LIST*
D10*
%TO.P,J3,1,GND*%
%TO.N,Earth*%
X44754500Y-90299000D03*
%TO.P,J3,2,VCC*%
%TO.N,+3V3*%
X44754500Y-92299000D03*
%TO.P,J3,3,SDA*%
%TO.N,Net-(J1-SDA)*%
X44754500Y-94299000D03*
%TO.P,J3,4,SCL*%
%TO.N,Net-(J1-SCL)*%
X44754500Y-96299000D03*
%TD*%
%TO.P,J1,1,GND*%
%TO.N,Earth*%
X44754500Y-61099000D03*
%TO.P,J1,2,VCC*%
%TO.N,+3V3*%
X44754500Y-63099000D03*
%TO.P,J1,3,SDA*%
%TO.N,Net-(J1-SDA)*%
X44754500Y-65099000D03*
%TO.P,J1,4,SCL*%
%TO.N,Net-(J1-SCL)*%
X44754500Y-67099000D03*
%TD*%
%TO.P,J2,1,GND*%
%TO.N,Earth*%
X44754500Y-75399000D03*
%TO.P,J2,2,VCC*%
%TO.N,+3V3*%
X44754500Y-77399000D03*
%TO.P,J2,3,SDA*%
%TO.N,Net-(J1-SDA)*%
X44754500Y-79399000D03*
%TO.P,J2,4,SCL*%
%TO.N,Net-(J1-SCL)*%
X44754500Y-81399000D03*
%TD*%
D11*
%TO.P,U2,1*%
%TO.N,N/C*%
X86240000Y-50700000D03*
%TO.P,U2,2*%
X86240000Y-53240000D03*
%TO.P,U2,3*%
X86240000Y-55780000D03*
%TO.P,U2,4*%
X86240000Y-58320000D03*
%TO.P,U2,5*%
X86240000Y-60860000D03*
%TO.P,U2,6*%
X86240000Y-63400000D03*
%TO.P,U2,7*%
X86240000Y-65940000D03*
%TO.P,U2,8*%
X86240000Y-68480000D03*
%TO.P,U2,9*%
X86240000Y-71020000D03*
%TO.P,U2,10*%
X86240000Y-73560000D03*
%TO.P,U2,11*%
X86240000Y-76100000D03*
%TO.P,U2,12*%
X86240000Y-78640000D03*
%TO.P,U2,13*%
X86240000Y-81180000D03*
%TO.P,U2,14,VIO*%
%TO.N,unconnected-(U2-VIO-Pad14)*%
X86240000Y-83720000D03*
%TO.P,U2,15,VBAT*%
%TO.N,unconnected-(U2-VBAT-Pad15)*%
X86240000Y-86260000D03*
%TO.P,U2,16,GND*%
%TO.N,unconnected-(U2-GND-Pad16)*%
X86240000Y-88800000D03*
%TO.P,U2,17*%
%TO.N,N/C*%
X83700000Y-88800000D03*
%TO.P,U2,18*%
X81160000Y-88800000D03*
%TO.P,U2,19,SD_CLK*%
%TO.N,Net-(U2-SD_CLK)*%
X78620000Y-88800000D03*
%TO.P,U2,20,SD_MOSI*%
%TO.N,Net-(U2-SD_MOSI)*%
X76080000Y-88800000D03*
%TO.P,U2,21,SD_MISO*%
%TO.N,Net-(U2-SD_MISO)*%
X73540000Y-88800000D03*
%TO.P,U2,22*%
%TO.N,N/C*%
X71000000Y-88800000D03*
%TO.P,U2,23*%
X68460000Y-88800000D03*
%TO.P,U2,24,SD_CS0*%
%TO.N,Net-(U2-SD_CS0)*%
X65920000Y-88800000D03*
%TO.P,U2,25,TX1*%
%TO.N,Net-(U1-D11{slash}UART2-Rx)*%
X63380000Y-88800000D03*
%TO.P,U2,26,RX1*%
%TO.N,Net-(U1-D10{slash}UART2-Tx)*%
X63380000Y-86260000D03*
%TO.P,U2,27,CTS1*%
%TO.N,unconnected-(U2-CTS1-Pad27)*%
X63380000Y-83720000D03*
%TO.P,U2,28,RTS1*%
%TO.N,unconnected-(U2-RTS1-Pad28)*%
X63380000Y-81180000D03*
%TO.P,U2,29,GPS_RX*%
%TO.N,Net-(U1-MISO)*%
X63380000Y-78640000D03*
%TO.P,U2,30,GPS_TX*%
%TO.N,Net-(U1-SCK)*%
X63380000Y-76100000D03*
%TO.P,U2,31,IO6*%
%TO.N,unconnected-(U2-IO6-Pad31)*%
X63380000Y-73560000D03*
%TO.P,U2,32,IO7*%
%TO.N,unconnected-(U2-IO7-Pad32)*%
X63380000Y-71020000D03*
%TO.P,U2,33,HST_TX*%
%TO.N,unconnected-(U2-HST_TX-Pad33)*%
X63380000Y-63400000D03*
%TO.P,U2,34,HST_RX*%
%TO.N,unconnected-(U2-HST_RX-Pad34)*%
X63380000Y-60860000D03*
%TO.P,U2,35,PMR_KEY*%
%TO.N,unconnected-(U2-PMR_KEY-Pad35)*%
X63380000Y-58320000D03*
%TO.P,U2,36,RST*%
%TO.N,unconnected-(U2-RST-Pad36)*%
X63380000Y-55780000D03*
%TO.P,U2,37,VUSB/5V*%
%TO.N,+5V*%
X63380000Y-53240000D03*
%TO.P,U2,38,GND*%
%TO.N,Earth*%
X63380000Y-50700000D03*
D12*
%TO.P,U2,39*%
%TO.N,N/C*%
X66098000Y-50700000D03*
D11*
%TO.P,U2,40*%
X68638000Y-50700000D03*
%TD*%
%TO.P,U3,1,NC*%
%TO.N,unconnected-(U3-NC-Pad1)*%
X65500000Y-126492000D03*
%TO.P,U3,2,NC*%
%TO.N,unconnected-(U3-NC-Pad2)*%
X68040000Y-126492000D03*
%TO.P,U3,3,CS*%
%TO.N,unconnected-(U3-CS-Pad3)*%
X70580000Y-126492000D03*
%TO.P,U3,4,SCK*%
%TO.N,unconnected-(U3-SCK-Pad4)*%
X73120000Y-126492000D03*
%TO.P,U3,5,SDO*%
%TO.N,unconnected-(U3-SDO-Pad5)*%
X75660000Y-126492000D03*
%TO.P,U3,6,SDI*%
%TO.N,unconnected-(U3-SDI-Pad6)*%
X78200000Y-126492000D03*
%TO.P,U3,7,3V3*%
%TO.N,+3V3*%
X80740000Y-126492000D03*
%TO.P,U3,8,GND*%
%TO.N,Earth*%
X83280000Y-126492000D03*
%TO.P,U3,9,SYN*%
%TO.N,unconnected-(U3-SYN-Pad9)*%
X65500000Y-103632000D03*
%TO.P,U3,10,INT*%
%TO.N,unconnected-(U3-INT-Pad10)*%
X68040000Y-103632000D03*
%TO.P,U3,11,NC*%
%TO.N,unconnected-(U3-NC-Pad11)*%
X70580000Y-103632000D03*
%TO.P,U3,12,NC*%
%TO.N,unconnected-(U3-NC-Pad12)*%
X73120000Y-103632000D03*
%TO.P,U3,13,SCL*%
%TO.N,Net-(J1-SDA)*%
X75660000Y-103632000D03*
%TO.P,U3,14,SDA*%
%TO.N,Net-(J1-SCL)*%
X78200000Y-103632000D03*
%TO.P,U3,15,NC*%
%TO.N,unconnected-(U3-NC-Pad15)*%
X80740000Y-103632000D03*
%TO.P,U3,16,GND*%
%TO.N,unconnected-(U3-GND-Pad16)*%
X83280000Y-103632000D03*
%TD*%
D13*
%TO.P,U1,*%
%TO.N,*%
X102362000Y-65532000D03*
D14*
%TO.P,U1,1,RST*%
%TO.N,unconnected-(U1-RST-Pad1)*%
X102362000Y-60452000D03*
D13*
%TO.P,U1,2,3.3V*%
%TO.N,unconnected-(U1-3.3V-Pad2)*%
X102362000Y-62992000D03*
%TO.P,U1,4,GND*%
%TO.N,Earth*%
X102362000Y-68072000D03*
%TO.P,U1,5,EN*%
%TO.N,unconnected-(U1-EN-Pad5)*%
X102362000Y-70612000D03*
%TO.P,U1,6,SCK*%
%TO.N,Net-(U1-SCK)*%
X102362000Y-73152000D03*
%TO.P,U1,7,MOSI*%
%TO.N,unconnected-(U1-MOSI-Pad7)*%
X102362000Y-75692000D03*
%TO.P,U1,8,MISO*%
%TO.N,Net-(U1-MISO)*%
X102362000Y-78232000D03*
%TO.P,U1,9,SCL*%
%TO.N,Net-(J1-SCL)*%
X102362000Y-80772000D03*
%TO.P,U1,10,SDA*%
%TO.N,Net-(J1-SDA)*%
X102362000Y-83312000D03*
%TO.P,U1,11,D9*%
%TO.N,unconnected-(U1-D9-Pad11)*%
X102362000Y-85852000D03*
%TO.P,U1,12,D7*%
%TO.N,Net-(J4-Pin_5)*%
X102362000Y-88392000D03*
%TO.P,U1,13,D6*%
%TO.N,Net-(J4-Pin_6)*%
X102362000Y-90932000D03*
%TO.P,U1,14,D5*%
%TO.N,unconnected-(U1-D5-Pad14)*%
X102362000Y-93472000D03*
%TO.P,U1,15,D3*%
%TO.N,unconnected-(U1-D3-Pad15)*%
X102362000Y-96012000D03*
%TO.P,U1,16,D2*%
%TO.N,unconnected-(U1-D2-Pad16)*%
X102362000Y-98552000D03*
%TO.P,U1,17,TX*%
%TO.N,unconnected-(U1-TX-Pad17)*%
X102362000Y-101092000D03*
%TO.P,U1,18,RX*%
%TO.N,unconnected-(U1-RX-Pad18)*%
X102362000Y-103632000D03*
%TO.P,U1,19,VCC*%
%TO.N,+5V*%
X124862000Y-70612000D03*
%TO.P,U1,20,3.3V*%
%TO.N,unconnected-(U1-3.3V-Pad20)*%
X124862000Y-73152000D03*
%TO.P,U1,21,GND*%
%TO.N,unconnected-(U1-GND-Pad21)*%
X124862000Y-75692000D03*
%TO.P,U1,22,SCL*%
%TO.N,unconnected-(U1-SCL-Pad22)*%
X124862000Y-78232000D03*
%TO.P,U1,23,SDA*%
%TO.N,unconnected-(U1-SDA-Pad23)*%
X124862000Y-80772000D03*
%TO.P,U1,24,A4*%
%TO.N,Net-(J4-Pin_1)*%
X124862000Y-83312000D03*
%TO.P,U1,25,A3*%
%TO.N,unconnected-(J5-Pin_1-Pad1)*%
X124862000Y-85852000D03*
%TO.P,U1,26,A2*%
%TO.N,unconnected-(U1-A2-Pad26)*%
X124862000Y-88392000D03*
%TO.P,U1,27,A1*%
%TO.N,unconnected-(U1-A1-Pad27)*%
X124862000Y-90932000D03*
%TO.P,U1,28,A0*%
%TO.N,unconnected-(U1-A0-Pad28)*%
X124862000Y-93472000D03*
%TO.P,U1,29,D13*%
%TO.N,Net-(J4-Pin_4)*%
X124862000Y-96012000D03*
%TO.P,U1,30,D12*%
%TO.N,unconnected-(U1-D12-Pad30)*%
X124862000Y-98552000D03*
%TO.P,U1,31,D11/UART2-Rx*%
%TO.N,Net-(U1-D11{slash}UART2-Rx)*%
X124862000Y-101092000D03*
%TO.P,U1,32,D10/UART2-Tx*%
%TO.N,Net-(U1-D10{slash}UART2-Tx)*%
X124862000Y-103632000D03*
%TD*%
D15*
%TO.P,J4,1,Pin_1*%
%TO.N,Net-(J4-Pin_1)*%
X102108000Y-114808000D03*
%TO.P,J4,2,Pin_2*%
%TO.N,unconnected-(J4-Pin_2-Pad2)*%
X104648000Y-114808000D03*
%TO.P,J4,3,Pin_3*%
%TO.N,unconnected-(J4-Pin_3-Pad3)*%
X107188000Y-114808000D03*
%TO.P,J4,4,Pin_4*%
%TO.N,Net-(J4-Pin_4)*%
X109728000Y-114808000D03*
%TO.P,J4,5,Pin_5*%
%TO.N,Net-(J4-Pin_5)*%
X112268000Y-114808000D03*
%TO.P,J4,6,Pin_6*%
%TO.N,Net-(J4-Pin_6)*%
X114808000Y-114808000D03*
%TD*%
%TO.P,J5,1,Pin_1*%
%TO.N,unconnected-(J5-Pin_1-Pad1)*%
X102108000Y-124714000D03*
%TO.P,J5,2,Pin_2*%
%TO.N,+3V3*%
X104648000Y-124714000D03*
%TO.P,J5,3,Pin_3*%
%TO.N,Earth*%
X107188000Y-124714000D03*
%TO.P,J5,4,Pin_4*%
%TO.N,Net-(J4-Pin_4)*%
X109728000Y-124714000D03*
%TO.P,J5,5,Pin_5*%
%TO.N,Net-(J4-Pin_5)*%
X112268000Y-124714000D03*
%TO.P,J5,6,Pin_6*%
%TO.N,Net-(J4-Pin_6)*%
X114808000Y-124714000D03*
%TD*%
D16*
%TO.N,+3V3*%
X42672000Y-90216500D02*
X44754500Y-92299000D01*
X45855900Y-83617600D02*
X42672000Y-86801500D01*
X42672000Y-86801500D02*
X42672000Y-90216500D01*
X45855900Y-78500400D02*
X45855900Y-83617600D01*
X44754500Y-77399000D02*
X45855900Y-78500400D01*
X42672000Y-65181500D02*
X44754500Y-63099000D01*
X42672000Y-75316500D02*
X42672000Y-65181500D01*
X44754500Y-77399000D02*
X42672000Y-75316500D01*
%TO.N,Net-(J4-Pin_6)*%
X114808000Y-124714000D02*
X114808000Y-114808000D01*
%TO.N,Net-(J4-Pin_5)*%
X112268000Y-124714000D02*
X112268000Y-114808000D01*
%TO.N,Net-(J4-Pin_4)*%
X109728000Y-124714000D02*
X109728000Y-114808000D01*
X121205600Y-99668400D02*
X124862000Y-96012000D01*
X121205600Y-102153500D02*
X121205600Y-99668400D01*
X109728000Y-113631100D02*
X121205600Y-102153500D01*
X109728000Y-114808000D02*
X109728000Y-113631100D01*
%TO.N,unconnected-(J5-Pin_1-Pad1)*%
X120594400Y-90119600D02*
X124862000Y-85852000D01*
X120594400Y-99642700D02*
X120594400Y-90119600D01*
X105917900Y-114319200D02*
X120594400Y-99642700D01*
X105917900Y-119727200D02*
X105917900Y-114319200D01*
X102108000Y-123537100D02*
X105917900Y-119727200D01*
X102108000Y-124714000D02*
X102108000Y-123537100D01*
%TO.N,+3V3*%
X46547000Y-92299000D02*
X44754500Y-92299000D01*
X80740000Y-126492000D02*
X46547000Y-92299000D01*
%TO.N,Net-(U1-MISO)*%
X62037600Y-79982400D02*
X63380000Y-78640000D01*
X62037600Y-89342300D02*
X62037600Y-79982400D01*
X62856300Y-90161000D02*
X62037600Y-89342300D01*
X87118200Y-90161000D02*
X62856300Y-90161000D01*
X99047200Y-78232000D02*
X87118200Y-90161000D01*
X102362000Y-78232000D02*
X99047200Y-78232000D01*
%TO.N,Net-(U1-SCK)*%
X101135100Y-71925100D02*
X102362000Y-73152000D01*
X101135100Y-63710700D02*
X101135100Y-71925100D01*
X86795800Y-49371400D02*
X101135100Y-63710700D01*
X85628800Y-49371400D02*
X86795800Y-49371400D01*
X83621500Y-51378700D02*
X85628800Y-49371400D01*
X83621500Y-55858500D02*
X83621500Y-51378700D01*
X63380000Y-76100000D02*
X83621500Y-55858500D01*
%TO.N,Net-(J4-Pin_1)*%
X105625000Y-102549000D02*
X124862000Y-83312000D01*
X105625000Y-110114100D02*
X105625000Y-102549000D01*
X102108000Y-113631100D02*
X105625000Y-110114100D01*
X102108000Y-114808000D02*
X102108000Y-113631100D01*
%TO.N,Net-(J1-SCL)*%
X97250000Y-84582000D02*
X78200000Y-103632000D01*
X102836800Y-84582000D02*
X97250000Y-84582000D01*
X103607400Y-83811400D02*
X102836800Y-84582000D01*
X103607400Y-82017400D02*
X103607400Y-83811400D01*
X102362000Y-80772000D02*
X103607400Y-82017400D01*
%TO.N,Net-(J1-SDA)*%
X95980000Y-83312000D02*
X102362000Y-83312000D01*
X75660000Y-103632000D02*
X95980000Y-83312000D01*
%TO.N,Earth*%
X51880900Y-62199100D02*
X45854600Y-62199100D01*
X63380000Y-50700000D02*
X51880900Y-62199100D01*
X44754500Y-61099000D02*
X45854600Y-62199100D01*
X45854600Y-74298900D02*
X44754500Y-75399000D01*
X45854600Y-62199100D02*
X45854600Y-74298900D01*
X46313800Y-89457400D02*
X46279600Y-89491600D01*
X46313800Y-76958300D02*
X46313800Y-89457400D01*
X44754500Y-75399000D02*
X46313800Y-76958300D01*
X45561900Y-89491600D02*
X46279600Y-89491600D01*
X44754500Y-90299000D02*
X45561900Y-89491600D01*
X46279600Y-89491600D02*
X83280000Y-126492000D01*
%TO.N,+5V*%
X67974600Y-53240000D02*
X63380000Y-53240000D01*
X72329300Y-48885300D02*
X67974600Y-53240000D01*
X103135300Y-48885300D02*
X72329300Y-48885300D01*
X124862000Y-70612000D02*
X103135300Y-48885300D01*
%TD*%
M02*
