M48
; DRILL file {KiCad 7.0.10} date Mon Jan 29 12:52:08 2024
; FORMAT={-:-/ absolute / inch / decimal}
; #@! TF.CreationDate,2024-01-29T12:52:08+00:00
; #@! TF.GenerationSoftware,Kicad,Pcbnew,7.0.10
; #@! TF.FileFunction,Plated,1,2,PTH
FMAT,2
INCH
; #@! TA.AperFunction,Plated,PTH,ViaDrill
T1C0.0157
; #@! TA.AperFunction,Plated,PTH,ComponentDrill
T2C0.0354
; #@! TA.AperFunction,Plated,PTH,ComponentDrill
T3C0.0394
; #@! TA.AperFunction,Plated,PTH,ComponentDrill
T4C0.0433
; #@! TA.AperFunction,Plated,PTH,ComponentDrill
T5C0.0472
%
G90
G05
T1
X6.0492Y-2.5983
X6.3407Y-2.7995
X6.3856Y-2.8423
X6.737Y-3.4812
X6.9348Y-3.5678
X8.0967Y-4.2533
T2
X4.12Y-2.69
X4.1987Y-2.69
X4.2775Y-2.69
X4.3562Y-2.69
X4.7016Y-2.59
X4.7031Y-2.185
X4.8Y-2.59
X4.8016Y-2.185
X4.8984Y-2.59
X4.9Y-2.185
X4.9969Y-2.59
X4.9984Y-2.185
X5.405Y-2.1379
X5.405Y-2.2363
X5.405Y-2.3347
X5.405Y-2.4331
X5.405Y-2.5316
X5.405Y-2.63
X6.5489Y-2.162
X6.5489Y-2.262
X6.5489Y-2.362
X6.5489Y-2.462
X6.5489Y-2.562
X6.5489Y-2.662
X6.5489Y-2.762
X6.5489Y-2.862
X6.5489Y-2.962
X6.5489Y-3.062
X6.59Y-3.3342
X6.59Y-4.22
X6.6489Y-2.162
X6.6489Y-3.062
X6.69Y-3.3342
X6.69Y-4.22
X6.7489Y-2.162
X6.7489Y-3.062
X6.79Y-3.3342
X6.79Y-4.22
X6.8489Y-2.162
X6.8489Y-3.062
X6.89Y-3.3342
X6.89Y-4.22
X6.9489Y-2.162
X6.9489Y-3.062
X6.99Y-3.3342
X6.99Y-4.22
X7.0489Y-2.162
X7.0489Y-3.062
X7.09Y-3.3342
X7.09Y-4.22
X7.1489Y-2.162
X7.1489Y-3.062
X7.19Y-3.3342
X7.19Y-4.22
X7.2489Y-2.162
X7.2489Y-3.062
X7.29Y-3.3342
X7.29Y-4.22
X7.3Y-4.48
X7.3Y-5.38
X7.3489Y-3.062
X7.39Y-3.3342
X7.39Y-4.22
X7.4Y-4.48
X7.4Y-5.38
X7.4489Y-3.062
X7.49Y-3.3342
X7.49Y-4.22
X7.5Y-4.48
X7.5Y-5.38
X7.5489Y-2.162
X7.5489Y-3.062
X7.59Y-3.3342
X7.59Y-4.22
X7.6Y-4.48
X7.6Y-5.38
X7.6489Y-2.162
X7.6489Y-3.062
X7.69Y-3.3342
X7.69Y-4.22
X7.7Y-4.48
X7.7Y-5.38
X7.7489Y-2.162
X7.7489Y-3.062
X7.79Y-3.3342
X7.79Y-4.22
X7.8Y-4.48
X7.8Y-5.38
X7.8489Y-2.162
X7.8489Y-3.062
X7.89Y-3.3342
X7.89Y-4.22
X7.9Y-4.48
X7.9Y-5.38
X7.9489Y-2.162
X7.9489Y-3.062
X7.99Y-3.3342
X8.0Y-4.48
X8.0Y-5.38
X8.0489Y-2.162
X8.0489Y-2.369
X8.0489Y-3.062
X8.09Y-3.3342
X8.19Y-3.3342
X8.265Y-2.62
X8.265Y-2.755
X8.265Y-2.89
X8.295Y-4.585
X8.295Y-4.7217
X8.295Y-4.855
X8.345Y-2.62
X8.345Y-2.755
X8.345Y-2.89
X8.375Y-4.585
X8.375Y-4.7217
X8.375Y-4.855
T3
X5.7948Y-2.17
X5.7948Y-2.27
X5.7948Y-2.37
X5.7948Y-2.47
X5.7948Y-2.57
X5.7948Y-2.67
X5.8948Y-2.17
X5.8948Y-2.27
X5.8948Y-2.37
X5.8948Y-2.47
X5.8948Y-2.57
X5.8948Y-2.67
T4
X8.0489Y-2.269
T5
X8.29Y-3.3342
M30
