%TF.GenerationSoftware,KiCad,Pcbnew,7.0.10*%
%TF.CreationDate,2024-01-29T12:51:58+00:00*%
%TF.ProjectId,data_logger,64617461-5f6c-46f6-9767-65722e6b6963,rev?*%
%TF.SameCoordinates,Original*%
%TF.FileFunction,Soldermask,Top*%
%TF.FilePolarity,Negative*%
%FSLAX46Y46*%
G04 Gerber Fmt 4.6, Leading zero omitted, Abs format (unit mm)*
G04 Created by KiCad (PCBNEW 7.0.10) date 2024-01-29 12:51:58*
%MOMM*%
%LPD*%
G01*
G04 APERTURE LIST*
G04 Aperture macros list*
%AMRoundRect*
0 Rectangle with rounded corners*
0 $1 Rounding radius*
0 $2 $3 $4 $5 $6 $7 $8 $9 X,Y pos of 4 corners*
0 Add a 4 corners polygon primitive as box body*
4,1,4,$2,$3,$4,$5,$6,$7,$8,$9,$2,$3,0*
0 Add four circle primitives for the rounded corners*
1,1,$1+$1,$2,$3*
1,1,$1+$1,$4,$5*
1,1,$1+$1,$6,$7*
1,1,$1+$1,$8,$9*
0 Add four rect primitives between the rounded corners*
20,1,$1+$1,$2,$3,$4,$5,0*
20,1,$1+$1,$4,$5,$6,$7,0*
20,1,$1+$1,$6,$7,$8,$9,0*
20,1,$1+$1,$8,$9,$2,$3,0*%
G04 Aperture macros list end*
%ADD10C,1.700000*%
%ADD11RoundRect,0.102000X-0.900000X0.900000X-0.900000X-0.900000X0.900000X-0.900000X0.900000X0.900000X0*%
%ADD12C,2.004000*%
%ADD13C,1.200000*%
%ADD14RoundRect,0.102000X-0.704000X0.704000X-0.704000X-0.704000X0.704000X-0.704000X0.704000X0.704000X0*%
%ADD15C,1.612000*%
%ADD16RoundRect,0.102000X-0.704000X-0.704000X0.704000X-0.704000X0.704000X0.704000X-0.704000X0.704000X0*%
%ADD17C,1.800000*%
%ADD18R,2.000000X2.000000*%
%ADD19C,4.300000*%
%ADD20R,1.700000X1.700000*%
%ADD21O,1.700000X1.700000*%
%ADD22C,1.600000*%
G04 APERTURE END LIST*
D10*
%TO.C,J11*%
X210693000Y-123317000D03*
X212725000Y-123317000D03*
%TD*%
%TO.C,J10*%
X210693000Y-119931000D03*
X212725000Y-119931000D03*
%TD*%
%TO.C,J9*%
X210693000Y-116459000D03*
X212725000Y-116459000D03*
%TD*%
D11*
%TO.C,U1*%
X210566000Y-84688000D03*
D12*
X208026000Y-84688000D03*
X205486000Y-84688000D03*
X202946000Y-84688000D03*
X200406000Y-84688000D03*
X197866000Y-84688000D03*
X195326000Y-84688000D03*
X192786000Y-84688000D03*
X190246000Y-84688000D03*
X187706000Y-84688000D03*
X185166000Y-84688000D03*
X182626000Y-84688000D03*
X180086000Y-84688000D03*
X177546000Y-84688000D03*
X175006000Y-84688000D03*
X172466000Y-84688000D03*
X169926000Y-84688000D03*
X167386000Y-84688000D03*
X200406000Y-107188000D03*
X197866000Y-107188000D03*
X195326000Y-107188000D03*
X192786000Y-107188000D03*
X190246000Y-107188000D03*
X187706000Y-107188000D03*
X185166000Y-107188000D03*
X182626000Y-107188000D03*
X180086000Y-107188000D03*
X177546000Y-107188000D03*
X175006000Y-107188000D03*
X172466000Y-107188000D03*
X169926000Y-107188000D03*
X167386000Y-107188000D03*
%TD*%
D10*
%TO.C,J8*%
X209931000Y-66548000D03*
X211963000Y-66548000D03*
%TD*%
%TO.C,J7*%
X209931000Y-73406000D03*
X211963000Y-73406000D03*
%TD*%
%TO.C,J6*%
X209931000Y-69977000D03*
X211963000Y-69977000D03*
%TD*%
D13*
%TO.C,J5*%
X138887000Y-68402000D03*
D14*
X137287000Y-66802000D03*
D15*
X137287000Y-64302000D03*
X137287000Y-61802000D03*
X137287000Y-59302000D03*
X137287000Y-56802000D03*
X137287000Y-54302000D03*
%TD*%
D13*
%TO.C,J3*%
X128520000Y-64186000D03*
D16*
X126920000Y-65786000D03*
D15*
X124420000Y-65786000D03*
X121920000Y-65786000D03*
X119420000Y-65786000D03*
%TD*%
D13*
%TO.C,J2*%
X128560000Y-53899000D03*
D16*
X126960000Y-55499000D03*
D15*
X124460000Y-55499000D03*
X121960000Y-55499000D03*
X119460000Y-55499000D03*
%TD*%
D17*
%TO.C,U2*%
X204443000Y-77774000D03*
X201903000Y-77774000D03*
X199363000Y-77774000D03*
X196823000Y-77774000D03*
X194283000Y-77774000D03*
X191743000Y-77774000D03*
X189203000Y-77774000D03*
X186663000Y-77774000D03*
X184123000Y-77774000D03*
X181583000Y-77774000D03*
X179043000Y-77774000D03*
X176503000Y-77774000D03*
X173963000Y-77774000D03*
X171423000Y-77774000D03*
X168883000Y-77774000D03*
X166343000Y-77774000D03*
X166343000Y-75234000D03*
X166343000Y-72694000D03*
X166343000Y-70154000D03*
X166343000Y-67614000D03*
X166343000Y-65074000D03*
X166343000Y-62534000D03*
X166343000Y-59994000D03*
X166343000Y-57454000D03*
X166343000Y-54914000D03*
X168883000Y-54914000D03*
X171423000Y-54914000D03*
X173963000Y-54914000D03*
X176503000Y-54914000D03*
X179043000Y-54914000D03*
X181583000Y-54914000D03*
X184123000Y-54914000D03*
X191743000Y-54914000D03*
X194283000Y-54914000D03*
X196823000Y-54914000D03*
X199363000Y-54914000D03*
X201903000Y-54914000D03*
X204443000Y-54914000D03*
D18*
X204443000Y-57632000D03*
D17*
X204443000Y-60172000D03*
%TD*%
D19*
%TO.C,REF8*%
X211500000Y-132000000D03*
%TD*%
%TO.C,REF2*%
X106500000Y-57000000D03*
%TD*%
%TO.C,REF4*%
X159000000Y-77000000D03*
%TD*%
%TO.C,REF5*%
X159000000Y-112000000D03*
%TD*%
%TO.C,REF1*%
X106500000Y-132000000D03*
%TD*%
%TO.C,REF7*%
X211500000Y-57000000D03*
%TD*%
D20*
%TO.C,J4*%
X147188000Y-55118000D03*
D21*
X147188000Y-57658000D03*
X147188000Y-60198000D03*
X147188000Y-62738000D03*
X147188000Y-65278000D03*
X147188000Y-67818000D03*
X149728000Y-55118000D03*
X149728000Y-57658000D03*
X149728000Y-60198000D03*
X149728000Y-62738000D03*
X149728000Y-65278000D03*
X149728000Y-67818000D03*
%TD*%
D19*
%TO.C,REF3*%
X159000000Y-57000000D03*
%TD*%
D22*
%TO.C,J1*%
X104648000Y-68326000D03*
X106648000Y-68326000D03*
X108648000Y-68326000D03*
X110648000Y-68326000D03*
%TD*%
D19*
%TO.C,REF6*%
X159000000Y-132000000D03*
%TD*%
D17*
%TO.C,U3*%
X203200000Y-113792000D03*
X200660000Y-113792000D03*
X198120000Y-113792000D03*
X195580000Y-113792000D03*
X193040000Y-113792000D03*
X190500000Y-113792000D03*
X187960000Y-113792000D03*
X185420000Y-113792000D03*
X203200000Y-136652000D03*
X200660000Y-136652000D03*
X198120000Y-136652000D03*
X195580000Y-136652000D03*
X193040000Y-136652000D03*
X190500000Y-136652000D03*
X187960000Y-136652000D03*
X185420000Y-136652000D03*
%TD*%
M02*
