%TF.GenerationSoftware,KiCad,Pcbnew,7.0.10*%
%TF.CreationDate,2024-01-29T12:51:58+00:00*%
%TF.ProjectId,data_logger,64617461-5f6c-46f6-9767-65722e6b6963,rev?*%
%TF.SameCoordinates,Original*%
%TF.FileFunction,Copper,L2,Bot*%
%TF.FilePolarity,Positive*%
%FSLAX46Y46*%
G04 Gerber Fmt 4.6, Leading zero omitted, Abs format (unit mm)*
G04 Created by KiCad (PCBNEW 7.0.10) date 2024-01-29 12:51:58*
%MOMM*%
%LPD*%
G01*
G04 APERTURE LIST*
%TA.AperFunction,ComponentPad*%
%ADD10C,1.700000*%
%TD*%
%TA.AperFunction,ComponentPad*%
%ADD11R,1.800000X1.800000*%
%TD*%
%TA.AperFunction,ComponentPad*%
%ADD12C,1.800000*%
%TD*%
%TA.AperFunction,ComponentPad*%
%ADD13R,1.408000X1.408000*%
%TD*%
%TA.AperFunction,ComponentPad*%
%ADD14C,1.408000*%
%TD*%
%TA.AperFunction,ComponentPad*%
%ADD15R,2.000000X2.000000*%
%TD*%
%TA.AperFunction,ComponentPad*%
%ADD16R,1.700000X1.700000*%
%TD*%
%TA.AperFunction,ComponentPad*%
%ADD17O,1.700000X1.700000*%
%TD*%
%TA.AperFunction,ComponentPad*%
%ADD18C,1.600000*%
%TD*%
%TA.AperFunction,ViaPad*%
%ADD19C,0.800000*%
%TD*%
%TA.AperFunction,Conductor*%
%ADD20C,0.400000*%
%TD*%
G04 APERTURE END LIST*
D10*
%TO.P,J11,1,Pin_1*%
%TO.N,Net-(J11-Pin_1)*%
X210693000Y-123317000D03*
%TO.P,J11,2,Pin_2*%
%TO.N,Net-(J11-Pin_2)*%
X212725000Y-123317000D03*
%TD*%
%TO.P,J10,1,Pin_1*%
%TO.N,Net-(J10-Pin_1)*%
X210693000Y-119931000D03*
%TO.P,J10,2,Pin_2*%
%TO.N,Net-(J10-Pin_2)*%
X212725000Y-119931000D03*
%TD*%
%TO.P,J9,1,Pin_1*%
%TO.N,Net-(J9-Pin_1)*%
X210693000Y-116459000D03*
%TO.P,J9,2,Pin_2*%
%TO.N,Net-(J9-Pin_2)*%
X212725000Y-116459000D03*
%TD*%
D11*
%TO.P,U1,1,RST*%
%TO.N,unconnected-(U1-RST-Pad1)*%
X210566000Y-84688000D03*
D12*
%TO.P,U1,2,3.3V*%
%TO.N,+3V3*%
X208026000Y-84688000D03*
%TO.P,U1,3,NC*%
%TO.N,unconnected-(U1-NC-Pad3)*%
X205486000Y-84688000D03*
%TO.P,U1,4,GND*%
%TO.N,Earth*%
X202946000Y-84688000D03*
%TO.P,U1,5,EN*%
%TO.N,unconnected-(U1-EN-Pad5)*%
X200406000Y-84688000D03*
%TO.P,U1,6,SCK*%
%TO.N,Net-(J4-Pin_4)*%
X197866000Y-84688000D03*
%TO.P,U1,7,MOSI*%
%TO.N,Net-(J4-Pin_2)*%
X195326000Y-84688000D03*
%TO.P,U1,8,MISO*%
%TO.N,Net-(J4-Pin_3)*%
X192786000Y-84688000D03*
%TO.P,U1,9,SCL*%
%TO.N,Net-(J1-SCL)*%
X190246000Y-84688000D03*
%TO.P,U1,10,SDA*%
%TO.N,Net-(J1-SDA)*%
X187706000Y-84688000D03*
%TO.P,U1,11,D9*%
%TO.N,unconnected-(U1-D9-Pad11)*%
X185166000Y-84688000D03*
%TO.P,U1,12,D7*%
%TO.N,Net-(U1-D7)*%
X182626000Y-84688000D03*
%TO.P,U1,13,D6*%
%TO.N,Net-(U1-D6)*%
X180086000Y-84688000D03*
%TO.P,U1,14,D5*%
%TO.N,Net-(U1-D5)*%
X177546000Y-84688000D03*
%TO.P,U1,15,D3*%
%TO.N,Net-(U1-D3)*%
X175006000Y-84688000D03*
%TO.P,U1,16,D2*%
%TO.N,Net-(J4-Pin_9)*%
X172466000Y-84688000D03*
%TO.P,U1,17,TX*%
%TO.N,Net-(J9-Pin_1)*%
X169926000Y-84688000D03*
%TO.P,U1,18,RX*%
%TO.N,Net-(J9-Pin_2)*%
X167386000Y-84688000D03*
%TO.P,U1,19,VCC*%
%TO.N,+5V*%
X200406000Y-107188000D03*
%TO.P,U1,20,3.3V*%
%TO.N,unconnected-(U1-3.3V-Pad20)*%
X197866000Y-107188000D03*
%TO.P,U1,21,GND*%
%TO.N,unconnected-(U1-GND-Pad21)*%
X195326000Y-107188000D03*
%TO.P,U1,22,SCL*%
%TO.N,unconnected-(U1-SCL-Pad22)*%
X192786000Y-107188000D03*
%TO.P,U1,23,SDA*%
%TO.N,unconnected-(U1-SDA-Pad23)*%
X190246000Y-107188000D03*
%TO.P,U1,24,A4*%
%TO.N,Net-(J4-Pin_1)*%
X187706000Y-107188000D03*
%TO.P,U1,25,A3*%
%TO.N,Net-(J5-Pin_3)*%
X185166000Y-107188000D03*
%TO.P,U1,26,A2*%
%TO.N,unconnected-(U1-A2-Pad26)*%
X182626000Y-107188000D03*
%TO.P,U1,27,A1*%
%TO.N,Net-(J10-Pin_1)*%
X180086000Y-107188000D03*
%TO.P,U1,28,A0*%
%TO.N,Net-(J10-Pin_2)*%
X177546000Y-107188000D03*
%TO.P,U1,29,D13*%
%TO.N,Net-(J11-Pin_1)*%
X175006000Y-107188000D03*
%TO.P,U1,30,D12*%
%TO.N,Net-(J11-Pin_2)*%
X172466000Y-107188000D03*
%TO.P,U1,31,D11/UART2-Rx*%
%TO.N,Net-(U1-D11{slash}UART2-Rx)*%
X169926000Y-107188000D03*
%TO.P,U1,32,D10/UART2-Tx*%
%TO.N,Net-(U1-D10{slash}UART2-Tx)*%
X167386000Y-107188000D03*
%TD*%
D10*
%TO.P,J8,1,Pin_1*%
%TO.N,Earth*%
X209931000Y-66548000D03*
%TO.P,J8,2,Pin_2*%
X211963000Y-66548000D03*
%TD*%
%TO.P,J7,1,Pin_1*%
%TO.N,+5V*%
X209931000Y-73406000D03*
%TO.P,J7,2,Pin_2*%
X211963000Y-73406000D03*
%TD*%
%TO.P,J6,1,Pin_1*%
%TO.N,+3V3*%
X209931000Y-69977000D03*
%TO.P,J6,2,Pin_2*%
X211963000Y-69977000D03*
%TD*%
D13*
%TO.P,J5,1,Pin_1*%
%TO.N,Earth*%
X137287000Y-66802000D03*
D14*
%TO.P,J5,2,Pin_2*%
%TO.N,+3V3*%
X137287000Y-64302000D03*
%TO.P,J5,3,Pin_3*%
%TO.N,Net-(J5-Pin_3)*%
X137287000Y-61802000D03*
%TO.P,J5,4,Pin_4*%
%TO.N,Net-(J4-Pin_2)*%
X137287000Y-59302000D03*
%TO.P,J5,5,Pin_5*%
%TO.N,Net-(J4-Pin_3)*%
X137287000Y-56802000D03*
%TO.P,J5,6,Pin_6*%
%TO.N,Net-(J4-Pin_4)*%
X137287000Y-54302000D03*
%TD*%
D13*
%TO.P,J3,1,GND*%
%TO.N,Earth*%
X126920000Y-65786000D03*
D14*
%TO.P,J3,2,VCC*%
%TO.N,+3V3*%
X124420000Y-65786000D03*
%TO.P,J3,3,SDA*%
%TO.N,Net-(J1-SDA)*%
X121920000Y-65786000D03*
%TO.P,J3,4,SCL*%
%TO.N,Net-(J1-SCL)*%
X119420000Y-65786000D03*
%TD*%
D13*
%TO.P,J2,1,GND*%
%TO.N,Earth*%
X126960000Y-55499000D03*
D14*
%TO.P,J2,2,VCC*%
%TO.N,+3V3*%
X124460000Y-55499000D03*
%TO.P,J2,3,SDA*%
%TO.N,Net-(J1-SDA)*%
X121960000Y-55499000D03*
%TO.P,J2,4,SCL*%
%TO.N,Net-(J1-SCL)*%
X119460000Y-55499000D03*
%TD*%
D12*
%TO.P,U2,1*%
%TO.N,N/C*%
X204443000Y-77774000D03*
%TO.P,U2,2*%
X201903000Y-77774000D03*
%TO.P,U2,3*%
X199363000Y-77774000D03*
%TO.P,U2,4*%
X196823000Y-77774000D03*
%TO.P,U2,5*%
X194283000Y-77774000D03*
%TO.P,U2,6*%
X191743000Y-77774000D03*
%TO.P,U2,7*%
X189203000Y-77774000D03*
%TO.P,U2,8*%
X186663000Y-77774000D03*
%TO.P,U2,9*%
X184123000Y-77774000D03*
%TO.P,U2,10*%
X181583000Y-77774000D03*
%TO.P,U2,11*%
X179043000Y-77774000D03*
%TO.P,U2,12*%
X176503000Y-77774000D03*
%TO.P,U2,13*%
X173963000Y-77774000D03*
%TO.P,U2,14,VIO*%
%TO.N,unconnected-(U2-VIO-Pad14)*%
X171423000Y-77774000D03*
%TO.P,U2,15,VBAT*%
%TO.N,unconnected-(U2-VBAT-Pad15)*%
X168883000Y-77774000D03*
%TO.P,U2,16,GND*%
%TO.N,unconnected-(U2-GND-Pad16)*%
X166343000Y-77774000D03*
%TO.P,U2,17*%
%TO.N,N/C*%
X166343000Y-75234000D03*
%TO.P,U2,18*%
X166343000Y-72694000D03*
%TO.P,U2,19,SD_CLK*%
%TO.N,unconnected-(U2-SD_CLK-Pad19)*%
X166343000Y-70154000D03*
%TO.P,U2,20,SD_MOSI*%
%TO.N,unconnected-(U2-SD_MOSI-Pad20)*%
X166343000Y-67614000D03*
%TO.P,U2,21,SD_MISO*%
%TO.N,unconnected-(U2-SD_MISO-Pad21)*%
X166343000Y-65074000D03*
%TO.P,U2,22*%
%TO.N,N/C*%
X166343000Y-62534000D03*
%TO.P,U2,23*%
X166343000Y-59994000D03*
%TO.P,U2,24,SD_CS0*%
%TO.N,unconnected-(U2-SD_CS0-Pad24)*%
X166343000Y-57454000D03*
%TO.P,U2,25,TX1*%
%TO.N,Net-(U1-D11{slash}UART2-Rx)*%
X166343000Y-54914000D03*
%TO.P,U2,26,RX1*%
%TO.N,Net-(U1-D10{slash}UART2-Tx)*%
X168883000Y-54914000D03*
%TO.P,U2,27,CTS1*%
%TO.N,unconnected-(U2-CTS1-Pad27)*%
X171423000Y-54914000D03*
%TO.P,U2,28,RTS1*%
%TO.N,unconnected-(U2-RTS1-Pad28)*%
X173963000Y-54914000D03*
%TO.P,U2,29,GPS_RX*%
%TO.N,Net-(U1-D7)*%
X176503000Y-54914000D03*
%TO.P,U2,30,GPS_TX*%
%TO.N,Net-(U1-D6)*%
X179043000Y-54914000D03*
%TO.P,U2,31,IO6*%
%TO.N,unconnected-(U2-IO6-Pad31)*%
X181583000Y-54914000D03*
%TO.P,U2,32,IO7*%
%TO.N,unconnected-(U2-IO7-Pad32)*%
X184123000Y-54914000D03*
%TO.P,U2,33,HST_TX*%
%TO.N,unconnected-(U2-HST_TX-Pad33)*%
X191743000Y-54914000D03*
%TO.P,U2,34,HST_RX*%
%TO.N,unconnected-(U2-HST_RX-Pad34)*%
X194283000Y-54914000D03*
%TO.P,U2,35,PMR_KEY*%
%TO.N,unconnected-(U2-PMR_KEY-Pad35)*%
X196823000Y-54914000D03*
%TO.P,U2,36,RST*%
%TO.N,unconnected-(U2-RST-Pad36)*%
X199363000Y-54914000D03*
%TO.P,U2,37,VUSB/5V*%
%TO.N,+5V*%
X201903000Y-54914000D03*
%TO.P,U2,38,GND*%
%TO.N,Earth*%
X204443000Y-54914000D03*
D15*
%TO.P,U2,39*%
%TO.N,N/C*%
X204443000Y-57632000D03*
D12*
%TO.P,U2,40*%
X204443000Y-60172000D03*
%TD*%
D16*
%TO.P,J4,1,Pin_1*%
%TO.N,Net-(J4-Pin_1)*%
X147188000Y-55118000D03*
D17*
%TO.P,J4,2,Pin_2*%
%TO.N,Net-(J4-Pin_2)*%
X147188000Y-57658000D03*
%TO.P,J4,3,Pin_3*%
%TO.N,Net-(J4-Pin_3)*%
X147188000Y-60198000D03*
%TO.P,J4,4,Pin_4*%
%TO.N,Net-(J4-Pin_4)*%
X147188000Y-62738000D03*
%TO.P,J4,5,Pin_5*%
%TO.N,Earth*%
X147188000Y-65278000D03*
%TO.P,J4,6,Pin_6*%
%TO.N,+3V3*%
X147188000Y-67818000D03*
%TO.P,J4,7,Pin_7*%
%TO.N,unconnected-(J4-Pin_7-Pad7)*%
X149728000Y-55118000D03*
%TO.P,J4,8,Pin_8*%
%TO.N,unconnected-(J4-Pin_8-Pad8)*%
X149728000Y-57658000D03*
%TO.P,J4,9,Pin_9*%
%TO.N,Net-(J4-Pin_9)*%
X149728000Y-60198000D03*
%TO.P,J4,10,Pin_10*%
%TO.N,unconnected-(J4-Pin_10-Pad10)*%
X149728000Y-62738000D03*
%TO.P,J4,11,Pin_11*%
%TO.N,unconnected-(J4-Pin_11-Pad11)*%
X149728000Y-65278000D03*
%TO.P,J4,12,Pin_12*%
%TO.N,unconnected-(J4-Pin_12-Pad12)*%
X149728000Y-67818000D03*
%TD*%
D18*
%TO.P,J1,1,GND*%
%TO.N,Earth*%
X104648000Y-68326000D03*
%TO.P,J1,2,VCC*%
%TO.N,+3V3*%
X106648000Y-68326000D03*
%TO.P,J1,3,SDA*%
%TO.N,Net-(J1-SDA)*%
X108648000Y-68326000D03*
%TO.P,J1,4,SCL*%
%TO.N,Net-(J1-SCL)*%
X110648000Y-68326000D03*
%TD*%
D12*
%TO.P,U3,16,GND*%
%TO.N,unconnected-(U3-GND-Pad16)*%
X203200000Y-113792000D03*
%TO.P,U3,15,NC*%
%TO.N,unconnected-(U3-NC-Pad15)*%
X200660000Y-113792000D03*
%TO.P,U3,14,SDA*%
%TO.N,Net-(J1-SCL)*%
X198120000Y-113792000D03*
%TO.P,U3,13,SCL*%
%TO.N,Net-(J1-SDA)*%
X195580000Y-113792000D03*
%TO.P,U3,12,NC*%
%TO.N,unconnected-(U3-NC-Pad12)*%
X193040000Y-113792000D03*
%TO.P,U3,11,NC*%
%TO.N,unconnected-(U3-NC-Pad11)*%
X190500000Y-113792000D03*
%TO.P,U3,10,INT*%
%TO.N,Net-(U1-D3)*%
X187960000Y-113792000D03*
%TO.P,U3,9,SYN*%
%TO.N,Net-(U1-D5)*%
X185420000Y-113792000D03*
%TO.P,U3,8,GND*%
%TO.N,Earth*%
X203200000Y-136652000D03*
%TO.P,U3,7,3V3*%
%TO.N,+3V3*%
X200660000Y-136652000D03*
%TO.P,U3,6,SDI*%
%TO.N,unconnected-(U3-SDI-Pad6)*%
X198120000Y-136652000D03*
%TO.P,U3,5,SDO*%
%TO.N,unconnected-(U3-SDO-Pad5)*%
X195580000Y-136652000D03*
%TO.P,U3,4,SCK*%
%TO.N,unconnected-(U3-SCK-Pad4)*%
X193040000Y-136652000D03*
%TO.P,U3,3,CS*%
%TO.N,unconnected-(U3-CS-Pad3)*%
X190500000Y-136652000D03*
%TO.P,U3,2,NC*%
%TO.N,unconnected-(U3-NC-Pad2)*%
X187960000Y-136652000D03*
%TO.P,U3,1,NC*%
%TO.N,unconnected-(U3-NC-Pad1)*%
X185420000Y-136652000D03*
%TD*%
D19*
%TO.N,Net-(J9-Pin_2)*%
X171120000Y-88422000D03*
%TO.N,Net-(J9-Pin_1)*%
X176144500Y-90621200D03*
%TO.N,Net-(U1-D10{slash}UART2-Tx)*%
X161053700Y-71107700D03*
%TO.N,Net-(U1-D11{slash}UART2-Rx)*%
X162195100Y-72193900D03*
%TO.N,Net-(J4-Pin_2)*%
X153650100Y-65997100D03*
%TO.N,+5V*%
X205655300Y-108033900D03*
%TD*%
D20*
%TO.N,Net-(J1-SCL)*%
X195579900Y-116332100D02*
X198120000Y-113792000D01*
X170053100Y-116332100D02*
X195579900Y-116332100D01*
X119420000Y-65786000D02*
X119507000Y-65786000D01*
X119507000Y-65786000D02*
X170053100Y-116332100D01*
X119460000Y-65786000D02*
X119888000Y-65786000D01*
%TO.N,Net-(J9-Pin_2)*%
X167386000Y-84688000D02*
X171120000Y-88422000D01*
%TO.N,Net-(J9-Pin_1)*%
X170211300Y-84688000D02*
X176144500Y-90621200D01*
X169926000Y-84688000D02*
X170211300Y-84688000D01*
%TO.N,Net-(J4-Pin_9)*%
X149728000Y-60198000D02*
X150979900Y-60198000D01*
X170262900Y-82484900D02*
X172466000Y-84688000D01*
X167505100Y-82484900D02*
X170262900Y-82484900D01*
X163792000Y-78771800D02*
X167505100Y-82484900D01*
X163792000Y-71805700D02*
X163792000Y-78771800D01*
X152184300Y-60198000D02*
X163792000Y-71805700D01*
X150979900Y-60198000D02*
X152184300Y-60198000D01*
%TO.N,Net-(J5-Pin_3)*%
X163188600Y-85210600D02*
X185166000Y-107188000D01*
X163188600Y-72053400D02*
X163188600Y-85210600D01*
X157934200Y-66799000D02*
X163188600Y-72053400D01*
X153318100Y-66799000D02*
X157934200Y-66799000D01*
X153067100Y-66548000D02*
X153318100Y-66799000D01*
X149161900Y-66548000D02*
X153067100Y-66548000D01*
X148458000Y-65844100D02*
X149161900Y-66548000D01*
X148458000Y-64772200D02*
X148458000Y-65844100D01*
X147711900Y-64026100D02*
X148458000Y-64772200D01*
X139511100Y-64026100D02*
X147711900Y-64026100D01*
X137287000Y-61802000D02*
X139511100Y-64026100D01*
%TO.N,Net-(J4-Pin_4)*%
X137500100Y-54302000D02*
X137287000Y-54302000D01*
X145936100Y-62738000D02*
X137500100Y-54302000D01*
X147188000Y-62738000D02*
X145936100Y-62738000D01*
%TO.N,Net-(U1-D10{slash}UART2-Tx)*%
X161053700Y-74288300D02*
X161053700Y-71107700D01*
X161801900Y-75036500D02*
X161053700Y-74288300D01*
X161801900Y-101603900D02*
X161801900Y-75036500D01*
X167386000Y-107188000D02*
X161801900Y-101603900D01*
%TO.N,Net-(U1-D6)*%
X177105000Y-81707000D02*
X180086000Y-84688000D01*
X177105000Y-81706900D02*
X177105000Y-81707000D01*
X167580100Y-81706900D02*
X177105000Y-81706900D01*
X164393900Y-78520700D02*
X167580100Y-81706900D01*
X164393900Y-54032800D02*
X164393900Y-78520700D01*
X165457000Y-52969700D02*
X164393900Y-54032800D01*
X177098700Y-52969700D02*
X165457000Y-52969700D01*
X179043000Y-54914000D02*
X177098700Y-52969700D01*
%TO.N,+3V3*%
X208026000Y-71882000D02*
X209931000Y-69977000D01*
X208026000Y-84688000D02*
X208026000Y-71882000D01*
X124460000Y-60084000D02*
X124460000Y-55499000D01*
X127291000Y-62915000D02*
X124460000Y-60084000D01*
X135900000Y-62915000D02*
X127291000Y-62915000D01*
X137287000Y-64302000D02*
X135900000Y-62915000D01*
X127291000Y-62915000D02*
X124420000Y-65786000D01*
X204851800Y-87862200D02*
X208026000Y-84688000D01*
X204851800Y-108366000D02*
X204851800Y-87862200D01*
X205117900Y-108632100D02*
X204851800Y-108366000D01*
X205117900Y-136583400D02*
X205117900Y-108632100D01*
X203727900Y-137973400D02*
X205117900Y-136583400D01*
X201981400Y-137973400D02*
X203727900Y-137973400D01*
X200660000Y-136652000D02*
X201981400Y-137973400D01*
%TO.N,Net-(U1-D5)*%
X189887500Y-109324500D02*
X185420000Y-113792000D01*
X201001300Y-109324500D02*
X189887500Y-109324500D01*
X202311200Y-108014600D02*
X201001300Y-109324500D01*
X202311200Y-106400900D02*
X202311200Y-108014600D01*
X182006600Y-86096300D02*
X202311200Y-106400900D01*
X178954300Y-86096300D02*
X182006600Y-86096300D01*
X177546000Y-84688000D02*
X178954300Y-86096300D01*
%TO.N,Net-(U1-D3)*%
X186623700Y-115128300D02*
X187960000Y-113792000D01*
X184857400Y-115128300D02*
X186623700Y-115128300D01*
X184115500Y-114386400D02*
X184857400Y-115128300D01*
X184115500Y-113242800D02*
X184115500Y-114386400D01*
X188770800Y-108587500D02*
X184115500Y-113242800D01*
X200887200Y-108587500D02*
X188770800Y-108587500D01*
X201709300Y-107765400D02*
X200887200Y-108587500D01*
X201709300Y-106650100D02*
X201709300Y-107765400D01*
X198833000Y-103773800D02*
X201709300Y-106650100D01*
X194091800Y-103773800D02*
X198833000Y-103773800D01*
X175006000Y-84688000D02*
X194091800Y-103773800D01*
%TO.N,Net-(U1-D7)*%
X178605900Y-80667900D02*
X182626000Y-84688000D01*
X167394000Y-80667900D02*
X178605900Y-80667900D01*
X165018400Y-78292300D02*
X167394000Y-80667900D01*
X165018400Y-54329400D02*
X165018400Y-78292300D01*
X165755200Y-53592600D02*
X165018400Y-54329400D01*
X175181600Y-53592600D02*
X165755200Y-53592600D01*
X176503000Y-54914000D02*
X175181600Y-53592600D01*
%TO.N,Net-(U1-D11{slash}UART2-Rx)*%
X162500300Y-99762300D02*
X169926000Y-107188000D01*
X162500300Y-72499100D02*
X162500300Y-99762300D01*
X162195100Y-72193900D02*
X162500300Y-72499100D01*
%TO.N,Net-(J1-SCL)*%
X116880000Y-68326000D02*
X119420000Y-65786000D01*
X110648000Y-68326000D02*
X116880000Y-68326000D01*
X119460000Y-65786000D02*
X119420000Y-65786000D01*
X119460000Y-65786000D02*
X119460000Y-55499000D01*
X198236000Y-113792000D02*
X198120000Y-113792000D01*
X203519300Y-108508700D02*
X198236000Y-113792000D01*
X203519300Y-97961300D02*
X203519300Y-108508700D01*
X190246000Y-84688000D02*
X203519300Y-97961300D01*
%TO.N,Net-(J1-SDA)*%
X121960000Y-65786000D02*
X121920000Y-65786000D01*
X121960000Y-65786000D02*
X121960000Y-55499000D01*
X193641800Y-115730200D02*
X195580000Y-113792000D01*
X171904200Y-115730200D02*
X193641800Y-115730200D01*
X121960000Y-65786000D02*
X171904200Y-115730200D01*
X197951500Y-111420500D02*
X195580000Y-113792000D01*
X199756400Y-111420500D02*
X197951500Y-111420500D01*
X202914600Y-108262300D02*
X199756400Y-111420500D01*
X202914600Y-99896600D02*
X202914600Y-108262300D01*
X187706000Y-84688000D02*
X202914600Y-99896600D01*
%TO.N,Net-(J4-Pin_2)*%
X153650100Y-64825600D02*
X153650100Y-65997100D01*
X150292500Y-61468000D02*
X153650100Y-64825600D01*
X149220800Y-61468000D02*
X150292500Y-61468000D01*
X148439900Y-60687100D02*
X149220800Y-61468000D01*
X148439900Y-59614000D02*
X148439900Y-60687100D01*
X147735800Y-58909900D02*
X148439900Y-59614000D01*
X147188000Y-58909900D02*
X147735800Y-58909900D01*
X147188000Y-57658000D02*
X147188000Y-58909900D01*
%TO.N,Earth*%
X207261400Y-80372600D02*
X202946000Y-84688000D01*
X207261400Y-69217600D02*
X207261400Y-80372600D01*
X209931000Y-66548000D02*
X207261400Y-69217600D01*
X144412100Y-66802000D02*
X145936100Y-65278000D01*
X137287000Y-66802000D02*
X144412100Y-66802000D01*
X147188000Y-65278000D02*
X145936100Y-65278000D01*
X204185600Y-85927600D02*
X202946000Y-84688000D01*
X204185600Y-111044000D02*
X204185600Y-85927600D01*
X204501900Y-111360300D02*
X204185600Y-111044000D01*
X204501900Y-135350100D02*
X204501900Y-111360300D01*
X203200000Y-136652000D02*
X204501900Y-135350100D01*
%TO.N,+5V*%
X211963000Y-101726200D02*
X205655300Y-108033900D01*
X211963000Y-73406000D02*
X211963000Y-101726200D01*
%TD*%
M02*
